<?xml version="1.0" encoding="utf-8"?>
<!-- Generator: Adobe Illustrator 27.5.0, SVG Export Plug-In . SVG Version: 6.00 Build 0)  -->
<svg version="1.1" xmlns="http://www.w3.org/2000/svg" xmlns:xlink="http://www.w3.org/1999/xlink" x="0px" y="0px"
	 viewBox="0 0 500 500" style="enable-background:new 0 0 500 500;" xml:space="preserve">
<g id="Background">
	<rect style="fill:#FFFFFF;" width="500" height="500"/>
</g>
<g id="Objects">
	<g>
		<g>
			<g>
				<path style="fill:#F3F4FD;" d="M335.597,0c0,0,66.386,35.528,60.548,100.913c-5.838,65.384-82.732,71.723-71.223,119.427
					c11.509,47.705,54.876,28.356,82.564,89.571c27.689,61.215-4.337,135.105-4.337,135.105L0,447.855V0H335.597z"/>
				<g>
					<g>
						<g>
							<rect x="39.865" y="61.882" style="fill:#D5CBFB;" width="81.063" height="385.136"/>
							<rect x="93.907" y="133.605" style="fill:#D5CBFB;" width="81.063" height="313.413"/>
							<rect x="187.814" y="250.196" style="fill:#D5CBFB;" width="51.874" height="196.821"/>
							<polygon style="fill:#D5CBFB;" points="309.409,447.018 257.535,447.018 257.535,176.305 309.409,156.289 							"/>
							<polygon style="fill:#D5CBFB;" points="378.13,447.018 334.93,447.018 334.93,273.796 378.13,294.065 							"/>
						</g>
						<g>
							<rect x="49.205" y="74.559" style="fill:#E1DCFA;" width="10.675" height="10.675"/>
							<rect x="62.716" y="92.406" style="fill:#E1DCFA;" width="10.675" height="10.675"/>
							<rect x="94.574" y="133.605" style="fill:#E1DCFA;" width="10.675" height="10.675"/>
							<rect x="79.563" y="154.955" style="fill:#E1DCFA;" width="10.675" height="10.675"/>
							<rect x="129.102" y="153.787" style="fill:#E1DCFA;" width="10.675" height="10.675"/>
							<rect x="49.539" y="217.17" style="fill:#E1DCFA;" width="10.675" height="10.675"/>
							<rect x="49.873" y="270.546" style="fill:#E1DCFA;" width="10.675" height="10.675"/>
							<rect x="152.953" y="176.639" style="fill:#E1DCFA;" width="10.675" height="10.675"/>
							<rect x="196.321" y="269.378" style="fill:#E1DCFA;" width="10.675" height="10.675"/>
							<rect x="217.671" y="292.063" style="fill:#E1DCFA;" width="10.675" height="10.675"/>
							<rect x="268.377" y="187.981" style="fill:#E1DCFA;" width="10.676" height="10.675"/>
							<rect x="287.559" y="212.834" style="fill:#E1DCFA;" width="10.676" height="10.675"/>
							<rect x="283.389" y="297.066" style="fill:#E1DCFA;" width="10.676" height="10.675"/>
							<rect x="342.935" y="295.898" style="fill:#E1DCFA;" width="10.675" height="10.676"/>
							<rect x="360.95" y="320.918" style="fill:#E1DCFA;" width="10.675" height="10.676"/>
							<rect x="271.213" y="246.193" style="fill:#E1DCFA;" width="10.675" height="10.675"/>
							<rect x="199.823" y="331.927" style="fill:#E1DCFA;" width="10.675" height="10.675"/>
							<rect x="153.287" y="401.315" style="fill:#E1DCFA;" width="10.675" height="10.676"/>
							<rect x="135.439" y="421.164" style="fill:#E1DCFA;" width="10.675" height="10.675"/>
						</g>
					</g>
					<path style="fill:#FFFFFF;" d="M240.021,80.563c0,0,7.006-17.014,18.515-13.844c11.509,3.169,7.673,11.509,12.343,12.343
						c4.671,0.834,5.505-4.003,12.344-0.834c6.838,3.17,3.836,8.507,3.836,8.507s6.172-5.171,11.509-0.668
						c5.338,4.504,3.837,9.174,13.845,9.174c10.008,0,12.343,0.667,14.678,3.836c-11.509,0.834-120.928-1.501-120.928-1.501
						s2.502-7.673,10.842-7.673C225.344,89.904,225.344,76.727,240.021,80.563z"/>
					<path style="fill:#F3F4FD;" d="M382.987,185.105c0,0,5.836-14.174,15.425-11.534c9.588,2.641,6.392,9.588,10.282,10.283
						c3.892,0.695,4.586-3.335,10.283-0.695c5.697,2.64,3.196,7.087,3.196,7.087s5.142-4.308,9.588-0.556
						c4.447,3.752,3.196,7.643,11.534,7.643c8.337,0,10.282,0.556,12.228,3.196c-9.588,0.695-100.745-1.25-100.745-1.25
						s2.084-6.393,9.032-6.393C370.759,192.886,370.759,181.908,382.987,185.105z"/>
					<g>
						<path style="fill:#DF6540;" d="M145.119,85.175c0-10.156,8.234-18.39,18.391-18.39c10.157,0,18.39,8.234,18.39,18.39
							c0,1.832-0.269,3.601-0.768,5.271l0,0c0,0-1.375,8.121-16.73,27.226C151.19,105.708,145.119,91.603,145.119,85.175z"/>
						<ellipse style="fill:#F3F4FF;" cx="163.688" cy="84.372" rx="9.998" ry="10.267"/>
					</g>
					<g>
						<path style="fill:#DF6540;" d="M220.683,225.088c0-4.695,3.806-8.502,8.501-8.502s8.502,3.807,8.502,8.502
							c0,0.847-0.124,1.665-0.355,2.436l0,0c0,0-0.635,3.754-7.734,12.586C223.489,234.581,220.683,228.06,220.683,225.088z"/>
						<path style="fill:#F3F4FF;" d="M224.645,224.717c0,2.621,2.07,4.746,4.623,4.746c2.553,0,4.622-2.125,4.622-4.746
							c0-2.621-2.069-4.746-4.622-4.746C226.715,219.971,224.645,222.096,224.645,224.717z"/>
					</g>
					<g>
						<path style="fill:#DF6540;" d="M341.611,251.845c0-6.998,5.674-12.672,12.672-12.672c6.998,0,12.672,5.673,12.672,12.672
							c0,1.263-0.186,2.48-0.529,3.632l0,0c0,0-0.947,5.595-11.527,18.759C345.794,265.992,341.611,256.273,341.611,251.845z"/>
						<path style="fill:#F3F4FF;" d="M347.517,251.291c0,3.907,3.085,7.074,6.89,7.074c3.805,0,6.889-3.167,6.889-7.074
							c0-3.907-3.084-7.074-6.889-7.074C350.602,244.217,347.517,247.384,347.517,251.291z"/>
					</g>
				</g>
				<g>
					<path style="fill:#50878B;" d="M410.528,374.69c0,0-13.81-16.049-2.341-35.116c6.727-11.183,27.154-17.825,27.154-17.825
						s5.99,6.596,6.453,29.472C442.234,372.964,410.528,374.69,410.528,374.69z"/>
					<path style="fill:#BCD7C1;" d="M432.758,353.512l-2.564,0.355c-1.71,0.232-3.415,0.496-5.123,0.742l-4.403,0.684
						c0.267-0.582,0.533-1.163,0.801-1.744l2.779-6.145l2.325-5.232l3.118-1.064c1.084-0.39,2.173-0.763,3.253-1.166l1.62-0.599
						l1.615-0.616c1.073-0.422,2.147-0.841,3.209-1.297c-1.122,0.276-2.232,0.592-3.341,0.902l-1.659,0.484l-1.654,0.501
						c-1.104,0.331-2.197,0.691-3.297,1.035l-2.41,0.797c0.885-2.03,1.784-4.055,2.654-6.092c1.783-4.128,3.54-8.268,5.221-12.441
						c-1.998,4.032-3.919,8.098-5.814,12.176c-0.95,2.025-1.871,4.063-2.808,6.095c-0.362-0.724-0.725-1.447-1.096-2.166
						c-0.504-0.97-0.999-1.943-1.519-2.905c-0.509-0.967-1.035-1.926-1.563-2.883c-0.534-0.954-1.068-1.908-1.634-2.848
						c0.404,1.018,0.84,2.021,1.275,3.025c0.442,1,0.887,1.998,1.348,2.989c0.451,0.995,0.926,1.979,1.393,2.968
						c0.443,0.934,0.903,1.86,1.356,2.79l-2.354,5.206l-2.737,6.163c-0.235,0.54-0.472,1.078-0.708,1.617
						c-0.556-1.238-1.108-2.479-1.672-3.714c-0.689-1.5-1.369-3.003-2.073-4.496c-0.695-1.497-1.406-2.987-2.119-4.477
						c-0.722-1.485-1.441-2.971-2.193-4.443c0.587,1.545,1.207,3.076,1.825,4.606c0.627,1.528,1.255,3.055,1.9,4.574
						c0.636,1.523,1.295,3.036,1.945,4.553c0.638,1.478,1.292,2.948,1.938,4.422c-0.517,1.179-1.032,2.357-1.538,3.54
						c-0.984,2.278-1.958,4.561-2.918,6.85c-0.652-1.18-1.297-2.363-1.963-3.535c-0.749-1.333-1.498-2.666-2.263-3.991
						c-0.757-1.329-1.531-2.648-2.307-3.968c-0.78-1.315-1.563-2.631-2.372-3.931c0.658,1.383,1.343,2.751,2.03,4.118
						c0.692,1.364,1.386,2.728,2.097,4.082c0.702,1.359,1.421,2.709,2.14,4.059c0.712,1.354,1.452,2.691,2.177,4.038l0.055,0.102
						c-0.64,1.535-1.275,3.073-1.896,4.617c0.739-1.494,1.466-2.993,2.188-4.495l0.093-0.017c1.683-0.307,3.359-0.641,5.039-0.959
						c1.678-0.333,3.355-0.664,5.03-1.012l2.511-0.523l2.508-0.543c1.67-0.374,3.34-0.744,5.003-1.156
						c-1.699,0.221-3.39,0.48-5.081,0.738l-2.534,0.404l-2.53,0.422c-1.687,0.283-3.37,0.584-5.054,0.883
						c-1.514,0.281-3.029,0.551-4.541,0.839c1.073-2.247,2.133-4.499,3.182-6.757c0.542-1.156,1.076-2.317,1.607-3.478l4.942-0.801
						c1.7-0.295,3.403-0.571,5.101-0.88l2.549-0.456l2.545-0.475c1.694-0.328,3.39-0.652,5.079-1.016
						c-1.719,0.178-3.432,0.394-5.145,0.606L432.758,353.512z"/>
				</g>
				<g>
					<path style="fill:#BCD7C1;" d="M424.771,380.376c0,0-1.854-21.091,18.586-29.887c11.987-5.158,32.454,1.365,32.454,1.365
						s1.017,8.851-11.953,27.7C451.529,397.473,424.771,380.376,424.771,380.376z"/>
					<path style="fill:#50878B;" d="M465.078,365.16l-1.636-0.559c-1.089-0.375-2.188-0.721-3.28-1.083l-2.424-0.759
						c1.904-1.133,3.814-2.252,5.711-3.398c3.857-2.311,7.698-4.649,11.498-7.059c-3.975,2.108-7.907,4.29-11.825,6.496
						c-1.953,1.091-3.891,2.208-5.836,3.313c0.127-0.8,0.255-1.599,0.373-2.399c0.157-1.081,0.322-2.161,0.462-3.245
						c0.15-1.082,0.283-2.167,0.413-3.253c0.122-1.087,0.245-2.174,0.334-3.266c-0.266,1.063-0.497,2.132-0.729,3.201
						c-0.224,1.07-0.445,2.141-0.649,3.214c-0.214,1.072-0.402,2.148-0.6,3.223c-0.184,1.018-0.352,2.038-0.526,3.058l-4.949,2.854
						l-5.819,3.409c-0.506,0.301-1.012,0.601-1.518,0.9c0.271-1.33,0.545-2.66,0.808-3.992c0.315-1.62,0.641-3.238,0.939-4.861
						c0.309-1.621,0.601-3.246,0.891-4.872c0.281-1.627,0.563-3.254,0.811-4.888c-0.424,1.597-0.814,3.202-1.205,4.806
						c-0.382,1.606-0.762,3.213-1.125,4.823c-0.373,1.608-0.72,3.222-1.076,4.833c-0.344,1.572-0.671,3.148-1.006,4.722
						c-1.107,0.656-2.213,1.313-3.315,1.979c-2.128,1.275-4.251,2.562-6.365,3.86c0.158-1.339,0.324-2.676,0.468-4.017
						c0.169-1.52,0.339-3.04,0.49-4.561c0.16-1.522,0.301-3.045,0.441-4.568c0.134-1.523,0.266-3.048,0.366-4.576
						c-0.271,1.507-0.514,3.018-0.753,4.529c-0.233,1.512-0.466,3.023-0.679,4.538c-0.223,1.514-0.426,3.029-0.631,4.545
						c-0.211,1.515-0.391,3.033-0.588,4.55l-0.015,0.115c-1.416,0.873-2.829,1.752-4.234,2.643c1.473-0.781,2.936-1.575,4.399-2.374
						l0.085,0.04c1.545,0.733,3.102,1.44,4.652,2.161c1.557,0.709,3.112,1.419,4.675,2.113l2.346,1.04l2.353,1.021
						c1.574,0.671,3.147,1.344,4.737,1.981c-1.508-0.813-3.033-1.588-4.558-2.365l-2.293-1.15l-2.302-1.133
						c-1.535-0.754-3.078-1.492-4.619-2.232c-1.394-0.654-2.783-1.318-4.179-1.967c2.183-1.198,4.357-2.41,6.527-3.632
						c1.114-0.623,2.225-1.255,3.334-1.887l4.481,2.231c1.553,0.754,3.098,1.522,4.656,2.262l2.336,1.116l2.344,1.1
						c1.567,0.723,3.134,1.448,4.718,2.139c-1.499-0.859-3.017-1.683-4.531-2.509l-2.282-1.224l-2.289-1.209
						c-1.524-0.809-3.064-1.589-4.594-2.385l-3.975-2.015c0.556-0.316,1.111-0.634,1.667-0.949l5.843-3.369l4.94-2.894l3.154,0.955
						c1.107,0.316,2.21,0.648,3.321,0.951l1.666,0.459l1.671,0.442c1.118,0.282,2.234,0.569,3.363,0.817
						c-1.073-0.43-2.157-0.82-3.24-1.216L465.078,365.16z"/>
				</g>
				<g>
					<path style="fill:#BCD7C1;" d="M194.398,428.451c0,0-18.818,9.704-34.7-5.881c-9.314-9.141-11.029-30.553-11.029-30.553
						s7.806-4.293,30.164,0.57C200.085,397.211,194.398,428.451,194.398,428.451z"/>
					<path style="fill:#50878B;" d="M165.048,396.91l0.104,1.725c0.065,1.15,0.161,2.298,0.24,3.447l0.215,2.53
						c-1.769-1.333-3.529-2.678-5.308-3.998c-3.601-2.693-7.219-5.363-10.889-7.968c3.458,2.88,6.966,5.693,10.492,8.483
						c1.749,1.395,3.517,2.765,5.275,4.147c-0.788,0.185-1.576,0.368-2.361,0.563c-1.06,0.265-2.122,0.521-3.178,0.801
						c-1.059,0.272-2.113,0.561-3.167,0.851c-1.052,0.299-2.105,0.597-3.149,0.929c1.085-0.157,2.162-0.348,3.239-0.538
						c1.075-0.198,2.15-0.398,3.221-0.616c1.073-0.208,2.141-0.441,3.21-0.665c1.012-0.215,2.02-0.447,3.029-0.671l4.517,3.498
						l5.359,4.095c0.47,0.355,0.94,0.709,1.409,1.064c-1.334,0.253-2.669,0.502-4.001,0.764c-1.619,0.322-3.239,0.634-4.855,0.972
						c-1.617,0.328-3.232,0.674-4.846,1.022c-1.612,0.355-3.225,0.711-4.831,1.101c1.639-0.213,3.271-0.46,4.904-0.706
						c1.631-0.254,3.262-0.511,4.89-0.785c1.63-0.265,3.254-0.554,4.881-0.835c1.585-0.276,3.167-0.571,4.751-0.856
						c1.026,0.775,2.053,1.551,3.086,2.317c1.987,1.486,3.981,2.965,5.984,4.43c-1.298,0.36-2.6,0.712-3.895,1.088
						c-1.47,0.419-2.941,0.838-4.407,1.274c-1.468,0.428-2.932,0.874-4.395,1.321c-1.461,0.453-2.922,0.909-4.374,1.395
						c1.498-0.319,2.988-0.668,4.477-1.019c1.487-0.356,2.975-0.714,4.458-1.091c1.484-0.367,2.964-0.753,4.444-1.139
						c1.482-0.378,2.955-0.786,4.433-1.179l0.112-0.03c1.345,0.98,2.693,1.955,4.05,2.918c-1.281-1.066-2.57-2.121-3.864-3.172
						l0.005-0.094c0.093-1.708,0.158-3.417,0.238-5.125c0.066-1.709,0.134-3.417,0.185-5.127l0.073-2.565l0.055-2.564
						c0.025-1.711,0.052-3.422,0.038-5.135c-0.181,1.703-0.32,3.408-0.462,5.113l-0.196,2.559l-0.177,2.559
						c-0.116,1.706-0.215,3.413-0.316,5.12c-0.078,1.538-0.166,3.074-0.237,4.612c-1.936-1.566-3.882-3.12-5.834-4.665
						c-0.999-0.796-2.004-1.584-3.009-2.371l0.368-4.993c0.109-1.722,0.235-3.442,0.33-5.166l0.148-2.584l0.13-2.586
						c0.075-1.725,0.153-3.449,0.192-5.177c-0.227,1.714-0.415,3.43-0.605,5.145l-0.268,2.575l-0.251,2.576
						c-0.171,1.718-0.311,3.436-0.467,5.155l-0.359,4.441c-0.504-0.393-1.007-0.788-1.51-1.184l-5.331-4.131l-4.549-3.477
						l-0.311-3.28c-0.127-1.145-0.237-2.291-0.378-3.435l-0.206-1.716l-0.224-1.714c-0.162-1.142-0.319-2.283-0.517-3.422
						c0.009,1.155,0.058,2.307,0.102,3.459L165.048,396.91z"/>
				</g>
				<path style="fill:#9285F9;" d="M101.996,447.137l353.027-1.453c0,0-4.837-15.013-19.849-18.516
					c-15.012-3.502-14.494-28.881-38.189-33.205c-23.693-4.324-30.774,11.945-30.774,11.945s-17.772-21.273-36.954-17.771
					c-19.182,3.503-26.354,24.186-26.354,24.186s-13.517-12.417-26.273-7.126c-12.757,5.291-22.766,14.299-22.766,14.299
					s-35.527-14.345-51.206-7.173c-15.679,7.173-20.517,12.01-20.517,12.01s-10.008-7.673-21.35-4.17
					c-11.342,3.503-12.844,9.841-12.844,9.841s-12.843-4.837-20.683-1.334c-7.839,3.502-5.504,10.508-12.677,10.008
					C107.418,438.177,101.996,447.137,101.996,447.137z"/>
			</g>
			<path style="fill:#F3F4FD;" d="M472.037,459.944c0,3.915-65.866,7.089-147.115,7.089c-81.25,0-147.116-3.174-147.116-7.089
				c0-3.915,65.866-7.089,147.116-7.089C406.171,452.855,472.037,456.029,472.037,459.944z"/>
		</g>
		<g>
			<g>
				<path style="fill:#D59870;" d="M85.262,427.274l8.463,4.723c0,0,10.178,1.785,27.14-17.319s59.992-60.171,61.42-69.99
					c1.428-9.82-4.285-15.355-11.249-14.463c-6.963,0.893-95.702,54.457-95.702,54.457L85.262,427.274z"/>
				<path style="fill:#E8BB95;" d="M154.432,258.091c0,0,15.56-11.418,21.248-4.106c4.999,6.428,0.357,12.32-4.643,16.427
					c-4.999,4.107-13.391,9.284-17.854,8.392C148.719,277.91,146.576,263.805,154.432,258.091z"/>
			</g>
			<g>
				<path style="fill:#464646;" d="M83.815,386.11h67.782c6.693,0,12.12-5.427,12.12-12.12V207.205
					c0-7.1-5.755-12.855-12.855-12.855H80.789c-7.646,0-13.845,6.199-13.845,13.845v161.044
					C66.944,378.557,74.497,386.11,83.815,386.11z"/>
				<g>
					<path style="fill:#FCFCFA;" d="M159.789,373.238c0,4.841-3.924,8.766-8.766,8.766H79.638c-4.841,0-8.766-3.925-8.766-8.766
						V208.098h88.917V373.238z"/>
					<path style="fill:#9385F7;" d="M79.638,198.635h71.385c4.841,0,8.766,3.925,8.766,8.766v0.697H70.872V207.4
						C70.872,202.56,74.796,198.635,79.638,198.635z"/>
					<path style="fill:#FCFCFA;" d="M150.177,204.706h3.154c0.706,0,1.28-0.573,1.28-1.28v-0.476c0-0.707-0.573-1.28-1.28-1.28
						h-3.154c-0.707,0-1.28,0.573-1.28,1.28v0.476C148.898,204.132,149.47,204.706,150.177,204.706z"/>
					<path style="fill:#FCFCFA;" d="M142.678,204.706h3.154c0.707,0,1.28-0.573,1.28-1.28v-0.476c0-0.707-0.573-1.28-1.28-1.28
						h-3.154c-0.707,0-1.28,0.573-1.28,1.28v0.476C141.398,204.132,141.971,204.706,142.678,204.706z"/>
					<path style="fill:#FCFCFA;" d="M80.008,204.706h3.154c0.707,0,1.28-0.573,1.28-1.28v-0.476c0-0.707-0.573-1.28-1.28-1.28
						h-3.154c-0.707,0-1.28,0.573-1.28,1.28v0.476C78.728,204.132,79.301,204.706,80.008,204.706z"/>
					<g>
						<g>
							<g>
								
									<rect x="79.799" y="217.382" transform="matrix(-1 -1.224647e-16 1.224647e-16 -1 230.6606 443.3349)" style="fill:#6C77A3;" width="71.062" height="8.57"/>
								<g>
									
										<rect x="79.799" y="232.916" transform="matrix(-1 -1.224647e-16 1.224647e-16 -1 230.6606 565.2832)" style="fill:#E8E8E8;" width="71.062" height="99.451"/>
									<polygon style="fill:#FCFCFA;" points="79.799,286.387 92.195,291.454 116.363,232.916 127.982,232.916 102.278,295.575 
										150.861,315.434 150.861,324.563 119.984,311.581 111.107,332.367 99.765,332.367 110.252,307.488 79.799,294.685 
																			"/>
								</g>
								<g>
									<path style="fill:#EFC24B;" d="M86.424,370.934h57.812c3.659,0,6.625-2.966,6.625-6.625v-2.462
										c0-3.659-2.966-6.625-6.625-6.625H86.424c-3.659,0-6.625,2.966-6.625,6.625v2.462
										C79.799,367.968,82.765,370.934,86.424,370.934z"/>
									
										<text transform="matrix(1 0 0 1 97.8276 366.7344)" style="fill:#FCFCFA; font-family:'BebasNeueBold'; font-size:10.5129px;">BOOK TAXI</text>
								</g>
							</g>
							<g>
								<path style="fill:#DF6540;" d="M98.189,270.411c0-10.157,8.234-18.391,18.391-18.391c10.157,0,18.391,8.233,18.391,18.391
									c0,1.832-0.27,3.601-0.768,5.271l0,0c0,0-1.375,8.12-16.73,27.226C104.26,290.944,98.189,276.839,98.189,270.411z"/>
								<path style="fill:#F3F4FF;" d="M106.76,269.607c0,5.67,4.476,10.267,9.999,10.267c5.522,0,9.999-4.597,9.999-10.267
									c0-5.67-4.477-10.267-9.999-10.267C111.236,259.341,106.76,263.938,106.76,269.607z"/>
							</g>
						</g>
						
							<rect x="80.871" y="337.366" transform="matrix(-1 -1.224647e-16 1.224647e-16 -1 230.6606 677.7685)" style="fill:#C1E3F7;" width="68.919" height="3.036"/>
						
							<rect x="80.871" y="346.294" transform="matrix(-1 -1.224647e-16 1.224647e-16 -1 230.6606 695.623)" style="fill:#C1E3F7;" width="68.919" height="3.035"/>
					</g>
				</g>
				<g>
					<path style="fill:#464646;" d="M101.94,205.955h27.137c4.241,0,7.679-3.438,7.679-7.679v-1.427H94.262v1.427
						C94.262,202.517,97.7,205.955,101.94,205.955z"/>
					<path style="fill:#262626;" d="M111.206,200.599h17.533c0.582,0,1.054-0.472,1.054-1.054v-0.392
						c0-0.582-0.472-1.054-1.054-1.054h-17.533c-0.582,0-1.054,0.472-1.054,1.054v0.392
						C110.152,200.127,110.624,200.599,111.206,200.599z"/>
					<path style="fill:#262626;" d="M102.296,199.439c0,1.331,1.08,2.41,2.411,2.41c1.332,0,2.411-1.079,2.411-2.41
						c0-1.332-1.079-2.411-2.411-2.411C103.376,197.028,102.296,198.107,102.296,199.439z"/>
					<path style="fill:#313131;" d="M103.367,199.439c0,0.739,0.6,1.339,1.339,1.339c0.74,0,1.339-0.6,1.339-1.339
						c0-0.74-0.6-1.339-1.339-1.339C103.967,198.099,103.367,198.699,103.367,199.439z"/>
					<path style="fill:#313131;" d="M98.368,199.439c0,0.739,0.6,1.339,1.339,1.339c0.74,0,1.339-0.6,1.339-1.339
						c0-0.74-0.6-1.339-1.339-1.339C98.968,198.099,98.368,198.699,98.368,199.439z"/>
				</g>
			</g>
			<g>
				<g>
					<path style="fill:#E8BB95;" d="M86.673,427.979c0,0,7.142-25.89-1.607-42.315c-8.749-16.427-17.676-18.212-16.784-34.281
						c0.893-16.069,7.678-19.283,7.856-37.495c0.178-18.212-8.928-27.675-15.534-26.603c-1.964,1.785-18.212,61.063-21.069,76.061
						c-2.857,14.998,0.714,41.423,0.714,41.423L86.673,427.979z"/>
					<path style="fill:#EFCFB8;" d="M58.729,291.986c0,0,6.696,2.44,5.982,8.153c-0.714,5.713-3.393,12.855-3.393,12.855
						l-8.362-1.762C52.958,311.233,56.497,295.796,58.729,291.986z"/>
				</g>
				<g>
					<path style="fill:#E8BB95;" d="M166.038,354.328c0,0,8.034-2.499,12.855-7.498c4.82-5,6.428-12.855,1.071-16.605
						c-5.356-3.75-12.855,0.179-17.677,3.571c-4.82,3.393-11.07,9.284-9.105,15.354
						C155.146,355.222,162.288,356.114,166.038,354.328z"/>
					<path style="fill:#EFCFB8;" d="M164.433,351.711l-7.149-9.697c0,0,6.538-5,10.311-2.107
						C171.367,342.799,170.88,348.315,164.433,351.711z"/>
				</g>
				<g>
					<path style="fill:#E8BB95;" d="M164.757,331.036c0,0,7.851-3.909,11.979-9.856c4.128-5.946,4.475-14.297-1.661-17.264
						c-6.135-2.967-13.198,2.323-17.594,6.616c-4.395,4.293-9.845,11.396-6.814,17.315
						C153.698,333.768,161.196,333.497,164.757,331.036z"/>
					<path style="fill:#EFCFB8;" d="M162.669,328.609l-8.97-8.788c0,0,5.895-6.233,10.258-3.885
						C168.321,318.285,168.739,324.043,162.669,328.609z"/>
				</g>
				<g>
					<path style="fill:#E8BB95;" d="M163.002,303.264c0,0,5-0.714,9.642-6.07c2.952-3.405,5.178-6.964,2.857-11.249
						c-2.321-4.285-9.642-9.819-14.284-7.855c-4.642,1.964-10.355,12.855-8.213,18.926
						C155.146,303.085,160.682,303.8,163.002,303.264z"/>
					<path style="fill:#EFCFB8;" d="M164.162,300.72l-9.178-8.222c0,0,5.505-6.369,9.886-4.258
						C169.25,290.351,169.912,295.977,164.162,300.72z"/>
				</g>
			</g>
			<g>
				<polygon style="fill:#E8E8E8;" points="107.474,438.246 32.841,399.68 23.557,416.463 96.582,455.922 				"/>
				<polygon style="fill:#9285F9;" points="105.867,458.422 15.7,409.321 0,434.676 0,499.897 83.191,500.56 				"/>
			</g>
		</g>
		<g>
			<path style="fill:#DF6540;" d="M98.189,270.411c0-10.157,8.234-18.391,18.391-18.391c10.157,0,18.391,8.233,18.391,18.391
				c0,1.832-0.27,3.601-0.768,5.271l0,0c0,0-1.375,8.12-16.73,27.226C104.26,290.944,98.189,276.839,98.189,270.411z"/>
			<path style="fill:#F3F4FF;" d="M106.76,269.607c0,5.67,4.476,10.267,9.999,10.267c5.522,0,9.999-4.597,9.999-10.267
				c0-5.67-4.477-10.267-9.999-10.267C111.236,259.341,106.76,263.938,106.76,269.607z"/>
		</g>
		<g>
			<rect x="302.737" y="311.578" style="fill:#383838;" width="9.675" height="16.513"/>
			<path style="fill:#EFC54B;" d="M415.805,370.624h-21.527c-6.123-8.626-23.825-32.238-37.664-37.529
				c-17.014-6.505-76.894-6.505-95.408-1.168c-16.48,4.751-28.598,32.626-31.063,38.697h-24.267
				c-9.606,0-17.394,7.788-17.394,17.394v46.657h26.032c1.144-13.777,12.687-24.604,26.759-24.604
				c14.073,0,25.616,10.826,26.76,24.604H389.15c1.144-13.777,12.687-24.604,26.759-24.604c14.073,0,25.616,10.826,26.76,24.604
				h23.53V421.02C466.199,393.186,443.637,370.624,415.805,370.624z"/>
			<path style="fill:#797979;" d="M208.414,438.094h-19.241c-4.389,0-7.947-3.559-7.947-7.947v-2.954
				c0-4.389,3.558-7.946,7.947-7.946h19.241V438.094z"/>
			<path style="fill:#797979;" d="M442.764,438.094h24.078c4.39,0,7.947-3.559,7.947-7.947v-2.954c0-4.389-3.558-7.946-7.947-7.946
				h-24.078V438.094z"/>
			<g>
				<path style="fill:#383838;" d="M264.291,436.926c0,12.713-10.306,23.018-23.018,23.018c-12.712,0-23.018-10.306-23.018-23.018
					c0-12.712,10.306-23.018,23.018-23.018C253.985,413.908,264.291,424.214,264.291,436.926z"/>
				<path style="fill:#7E7E7E;" d="M252.448,436.926c0,6.172-5.003,11.176-11.176,11.176c-6.172,0-11.175-5.004-11.175-11.176
					c0-6.172,5.003-11.175,11.175-11.175C247.445,425.751,252.448,430.754,252.448,436.926z"/>
				<path style="fill:#A1A1A1;" d="M249.029,436.926c0,4.284-3.473,7.757-7.756,7.757c-4.283,0-7.756-3.473-7.756-7.757
					c0-4.283,3.473-7.756,7.756-7.756C245.556,429.17,249.029,432.643,249.029,436.926z"/>
			</g>
			<g>
				<path style="fill:#E3F7FF;" d="M305.406,334.634c-18.648,0.001-37.134,1.289-44.118,4.049
					c-9.664,3.817-21.684,30.523-21.684,30.523l65.802,1.201V334.634z"/>
				<path style="fill:#E3F7FF;" d="M310.243,370.495l75.643,1.38c0,0-19.515-29.69-37.028-34.026
					c-7.677-1.901-22.852-3.001-38.614-3.186V370.495z"/>
			</g>
			<g>
				<rect x="220.173" y="377.797" style="fill:#383838;" width="5.504" height="5.504"/>
				<rect x="225.677" y="383.301" style="fill:#383838;" width="5.505" height="5.504"/>
				<rect x="231.182" y="377.797" style="fill:#383838;" width="5.504" height="5.504"/>
				<rect x="236.686" y="383.301" style="fill:#383838;" width="5.504" height="5.504"/>
				<rect x="242.19" y="377.797" style="fill:#383838;" width="5.504" height="5.504"/>
				<rect x="247.694" y="383.301" style="fill:#383838;" width="5.504" height="5.504"/>
				<rect x="253.198" y="377.797" style="fill:#383838;" width="5.505" height="5.504"/>
				<rect x="258.703" y="383.301" style="fill:#383838;" width="5.504" height="5.504"/>
				<rect x="264.207" y="377.797" style="fill:#383838;" width="5.505" height="5.504"/>
				<rect x="269.712" y="383.301" style="fill:#383838;" width="5.504" height="5.504"/>
				<rect x="275.216" y="377.797" style="fill:#383838;" width="5.505" height="5.504"/>
				<rect x="280.721" y="383.301" style="fill:#383838;" width="5.504" height="5.504"/>
			</g>
			<g>
				<rect x="315.748" y="377.797" style="fill:#383838;" width="5.504" height="5.504"/>
				<rect x="321.252" y="383.301" style="fill:#383838;" width="5.504" height="5.504"/>
				<rect x="326.756" y="377.797" style="fill:#383838;" width="5.505" height="5.504"/>
				<rect x="332.261" y="383.301" style="fill:#383838;" width="5.504" height="5.504"/>
				<rect x="337.765" y="377.797" style="fill:#383838;" width="5.505" height="5.504"/>
				<rect x="343.27" y="383.301" style="fill:#383838;" width="5.504" height="5.504"/>
				<rect x="348.773" y="377.797" style="fill:#383838;" width="5.505" height="5.504"/>
				<rect x="354.278" y="383.301" style="fill:#383838;" width="5.504" height="5.504"/>
				<rect x="359.782" y="377.797" style="fill:#383838;" width="5.504" height="5.504"/>
				<rect x="365.286" y="383.301" style="fill:#383838;" width="5.505" height="5.504"/>
				<rect x="370.791" y="377.797" style="fill:#383838;" width="5.504" height="5.504"/>
				<rect x="376.295" y="383.301" style="fill:#383838;" width="5.505" height="5.504"/>
			</g>
			<path style="fill:#DF6540;" d="M205.328,389.639c5.337-4.503,2.835-11.842,0-14.344c-1.938-1.711-6.527-1.784-9.236-1.659
				c-4.594,3.131-7.61,8.403-7.61,14.382v4.557C193.102,392.839,201.552,392.825,205.328,389.639z"/>
			<path style="fill:#DF6540;" d="M449.185,385.636l-14.512,0.167c0,0,1.335,5.504,8.841,9.341
				c7.506,3.836,14.345,1.835,14.345,1.835S452.689,388.639,449.185,385.636z"/>
			<path style="fill:#BABABA;" d="M461.542,399.833l-16.692,0.647c0,0,4.503,12.677,9.507,15.68
				c5.004,3.002,11.733,1.525,11.733,1.525S466.06,407.692,461.542,399.833z"/>
			<rect x="305.406" y="370.457" style="fill:#DEAE39;" width="4.67" height="58.713"/>
			<rect x="388.639" y="373.293" style="fill:#DEAE39;" width="1.668" height="55.544"/>
			<path style="fill:#797979;" d="M385.805,436.009H270.043c-2.486,0-4.501-2.016-4.501-4.501v-1.673
				c0-2.486,2.015-4.501,4.501-4.501h115.762c2.486,0,4.502,2.015,4.502,4.501v1.673
				C390.307,433.993,388.291,436.009,385.805,436.009z"/>
			<path style="fill:#CB9A2E;" d="M386.442,380.299H381.8V360.85h4.643c4.529,0,8.2,3.672,8.2,8.2v3.048
				C394.643,376.627,390.972,380.299,386.442,380.299z"/>
			<g>
				<path style="fill:#383838;" d="M438.928,436.926c0,12.713-10.306,23.018-23.018,23.018c-12.712,0-23.018-10.306-23.018-23.018
					c0-12.712,10.306-23.018,23.018-23.018C428.622,413.908,438.928,424.214,438.928,436.926z"/>
				<path style="fill:#7E7E7E;" d="M427.085,436.926c0,6.172-5.003,11.176-11.176,11.176c-6.172,0-11.175-5.004-11.175-11.176
					c0-6.172,5.003-11.175,11.175-11.175C422.082,425.751,427.085,430.754,427.085,436.926z"/>
				<path style="fill:#A1A1A1;" d="M423.832,436.926c0,4.284-3.472,7.757-7.756,7.757c-4.283,0-7.756-3.473-7.756-7.757
					c0-4.283,3.473-7.756,7.756-7.756C420.36,429.17,423.832,432.643,423.832,436.926z"/>
			</g>
			<rect x="288.227" y="377.63" style="fill:#CB9A2E;" width="12.843" height="4.503"/>
		</g>
	</g>
</g>
</svg>
